<mxfile host="Electron" agent="Mozilla/5.0 (Windows NT 10.0; Win64; x64) AppleWebKit/537.36 (KHTML, like Gecko) draw.io/26.0.16 Chrome/132.0.6834.196 Electron/34.2.0 Safari/537.36" version="26.0.16">
  <diagram name="Page-1" id="trQdiBlen_foMQJMFfYV">
    <mxGraphModel dx="1434" dy="844" grid="1" gridSize="10" guides="1" tooltips="1" connect="1" arrows="1" fold="1" page="1" pageScale="1" pageWidth="850" pageHeight="1100" math="0" shadow="0">
      <root>
        <mxCell id="0" />
        <mxCell id="1" parent="0" />
        <mxCell id="0nKidd32OIN0jVX-Ibuc-1" value="Raspberry Pi" style="rounded=0;whiteSpace=wrap;html=1;fontStyle=1" parent="1" vertex="1">
          <mxGeometry x="320" y="160" width="160" height="40" as="geometry" />
        </mxCell>
        <mxCell id="0nKidd32OIN0jVX-Ibuc-4" value="&lt;b&gt;&amp;nbsp; Interface&lt;/b&gt;" style="rounded=0;whiteSpace=wrap;html=1;align=left;verticalAlign=top;" parent="1" vertex="1">
          <mxGeometry x="600" y="400" width="240" height="200" as="geometry" />
        </mxCell>
        <mxCell id="0nKidd32OIN0jVX-Ibuc-9" value="&lt;b&gt;&amp;nbsp; Pathfinding&lt;/b&gt;" style="rounded=0;whiteSpace=wrap;html=1;align=left;verticalAlign=top;" parent="1" vertex="1">
          <mxGeometry x="280" y="400" width="240" height="200" as="geometry" />
        </mxCell>
        <mxCell id="0nKidd32OIN0jVX-Ibuc-10" value="&lt;b&gt;&amp;nbsp; Movement&lt;/b&gt;" style="rounded=0;whiteSpace=wrap;html=1;align=left;verticalAlign=top;" parent="1" vertex="1">
          <mxGeometry y="400" width="240" height="200" as="geometry" />
        </mxCell>
        <mxCell id="0nKidd32OIN0jVX-Ibuc-11" value="&lt;font style=&quot;font-size: 10px;&quot;&gt;Microcontroller&lt;/font&gt;" style="rounded=0;whiteSpace=wrap;html=1;" parent="1" vertex="1">
          <mxGeometry x="40" y="440" width="160" height="20" as="geometry" />
        </mxCell>
        <mxCell id="0nKidd32OIN0jVX-Ibuc-15" value="&lt;font style=&quot;font-size: 10px;&quot;&gt;Sonar&lt;/font&gt;" style="rounded=0;whiteSpace=wrap;html=1;" parent="1" vertex="1">
          <mxGeometry x="140" y="492" width="60" height="20" as="geometry" />
        </mxCell>
        <mxCell id="0nKidd32OIN0jVX-Ibuc-16" value="&lt;font style=&quot;font-size: 10px;&quot;&gt;Navigation&lt;/font&gt;" style="rounded=0;whiteSpace=wrap;html=1;" parent="1" vertex="1">
          <mxGeometry x="370" y="420" width="60" height="20" as="geometry" />
        </mxCell>
        <mxCell id="0nKidd32OIN0jVX-Ibuc-18" value="&lt;font style=&quot;font-size: 10px;&quot;&gt;UI_Control&lt;/font&gt;" style="rounded=0;whiteSpace=wrap;html=1;" parent="1" vertex="1">
          <mxGeometry x="687.5" y="440" width="65" height="20" as="geometry" />
        </mxCell>
        <mxCell id="0nKidd32OIN0jVX-Ibuc-19" value="&lt;font style=&quot;font-size: 10px;&quot;&gt;User_Control&lt;/font&gt;" style="rounded=0;whiteSpace=wrap;html=1;" parent="1" vertex="1">
          <mxGeometry x="640" y="500" width="65" height="20" as="geometry" />
        </mxCell>
        <mxCell id="0nKidd32OIN0jVX-Ibuc-20" value="&lt;font style=&quot;font-size: 10px;&quot;&gt;Algorithm_Upload&lt;/font&gt;" style="rounded=0;whiteSpace=wrap;html=1;" parent="1" vertex="1">
          <mxGeometry x="720" y="500" width="90" height="20" as="geometry" />
        </mxCell>
        <mxCell id="0nKidd32OIN0jVX-Ibuc-23" value="" style="endArrow=classic;html=1;rounded=0;entryX=0.051;entryY=1.003;entryDx=0;entryDy=0;entryPerimeter=0;exitX=0.781;exitY=-0.016;exitDx=0;exitDy=0;exitPerimeter=0;targetPerimeterSpacing=-2;startArrow=none;startFill=0;endFill=1;" parent="1" edge="1">
          <mxGeometry width="50" height="50" relative="1" as="geometry">
            <mxPoint x="691" y="500" as="sourcePoint" />
            <mxPoint x="691" y="460" as="targetPoint" />
          </mxGeometry>
        </mxCell>
        <mxCell id="0nKidd32OIN0jVX-Ibuc-24" value="" style="endArrow=classic;html=1;rounded=0;entryX=0.051;entryY=1.003;entryDx=0;entryDy=0;entryPerimeter=0;exitX=0.781;exitY=-0.016;exitDx=0;exitDy=0;exitPerimeter=0;targetPerimeterSpacing=-2;endFill=1;" parent="1" edge="1">
          <mxGeometry width="50" height="50" relative="1" as="geometry">
            <mxPoint x="740" y="500" as="sourcePoint" />
            <mxPoint x="740" y="460" as="targetPoint" />
          </mxGeometry>
        </mxCell>
        <mxCell id="0nKidd32OIN0jVX-Ibuc-34" style="edgeStyle=orthogonalEdgeStyle;rounded=0;orthogonalLoop=1;jettySize=auto;html=1;exitX=0;exitY=0.5;exitDx=0;exitDy=0;entryX=0.5;entryY=0;entryDx=0;entryDy=0;startArrow=none;startFill=0;endArrow=classic;endFill=1;" parent="1" source="0nKidd32OIN0jVX-Ibuc-1" target="0nKidd32OIN0jVX-Ibuc-11" edge="1">
          <mxGeometry relative="1" as="geometry">
            <mxPoint x="300" y="180" as="sourcePoint" />
            <mxPoint x="120" y="280" as="targetPoint" />
          </mxGeometry>
        </mxCell>
        <mxCell id="0nKidd32OIN0jVX-Ibuc-37" style="edgeStyle=orthogonalEdgeStyle;rounded=0;orthogonalLoop=1;jettySize=auto;html=1;exitX=1;exitY=0.5;exitDx=0;exitDy=0;entryX=0.5;entryY=0;entryDx=0;entryDy=0;startArrow=classic;startFill=1;" parent="1" source="0nKidd32OIN0jVX-Ibuc-1" target="0nKidd32OIN0jVX-Ibuc-18" edge="1">
          <mxGeometry relative="1" as="geometry">
            <mxPoint x="490" y="190" as="sourcePoint" />
            <mxPoint x="730" y="370" as="targetPoint" />
          </mxGeometry>
        </mxCell>
        <mxCell id="0nKidd32OIN0jVX-Ibuc-38" value="&lt;font style=&quot;font-size: 10px;&quot;&gt;12&lt;/font&gt;" style="text;html=1;align=center;verticalAlign=middle;resizable=0;points=[];autosize=1;strokeColor=none;fillColor=none;spacing=-3;" parent="1" vertex="1">
          <mxGeometry x="670" y="472" width="20" height="20" as="geometry" />
        </mxCell>
        <mxCell id="0nKidd32OIN0jVX-Ibuc-39" value="&lt;font style=&quot;font-size: 10px;&quot;&gt;13&lt;/font&gt;" style="text;html=1;align=center;verticalAlign=middle;resizable=0;points=[];autosize=1;strokeColor=none;fillColor=none;spacing=-3;" parent="1" vertex="1">
          <mxGeometry x="740" y="472" width="20" height="20" as="geometry" />
        </mxCell>
        <mxCell id="0nKidd32OIN0jVX-Ibuc-40" value="&lt;font style=&quot;font-size: 10px;&quot;&gt;3&lt;/font&gt;" style="text;html=1;align=center;verticalAlign=middle;resizable=0;points=[];autosize=1;strokeColor=none;fillColor=none;spacing=-3;" parent="1" vertex="1">
          <mxGeometry x="560" y="180" width="20" height="20" as="geometry" />
        </mxCell>
        <mxCell id="0nKidd32OIN0jVX-Ibuc-41" value="&lt;font style=&quot;font-size: 10px;&quot;&gt;1&lt;/font&gt;" style="text;html=1;align=center;verticalAlign=middle;resizable=0;points=[];autosize=1;strokeColor=none;fillColor=none;spacing=-3;" parent="1" vertex="1">
          <mxGeometry x="220" y="180" width="20" height="20" as="geometry" />
        </mxCell>
        <mxCell id="0nKidd32OIN0jVX-Ibuc-42" value="&lt;font style=&quot;font-size: 10px;&quot;&gt;2&lt;/font&gt;" style="text;html=1;align=center;verticalAlign=middle;resizable=0;points=[];autosize=1;strokeColor=none;fillColor=none;spacing=-3;" parent="1" vertex="1">
          <mxGeometry x="375" y="350" width="20" height="20" as="geometry" />
        </mxCell>
        <mxCell id="VR2aZ24LKCht_wBViMNL-3" style="edgeStyle=orthogonalEdgeStyle;rounded=0;orthogonalLoop=1;jettySize=auto;html=1;exitX=0.5;exitY=0;exitDx=0;exitDy=0;entryX=0.5;entryY=1;entryDx=0;entryDy=0;startArrow=classic;startFill=1;" parent="1" source="0nKidd32OIN0jVX-Ibuc-16" target="0nKidd32OIN0jVX-Ibuc-1" edge="1">
          <mxGeometry relative="1" as="geometry">
            <mxPoint x="400" y="440" as="sourcePoint" />
            <mxPoint x="400" y="200" as="targetPoint" />
          </mxGeometry>
        </mxCell>
        <mxCell id="3istYZNnOz3HoTTH1EdK-2" value="&lt;font style=&quot;font-size: 10px;&quot;&gt;Motor Drivers&lt;/font&gt;" style="rounded=0;whiteSpace=wrap;html=1;" parent="1" vertex="1">
          <mxGeometry x="50" y="492" width="50" height="38" as="geometry" />
        </mxCell>
        <mxCell id="3istYZNnOz3HoTTH1EdK-3" value="&lt;font style=&quot;font-size: 10px;&quot;&gt;Motors&lt;/font&gt;" style="rounded=0;whiteSpace=wrap;html=1;" parent="1" vertex="1">
          <mxGeometry x="50" y="560" width="50" height="20" as="geometry" />
        </mxCell>
        <mxCell id="3istYZNnOz3HoTTH1EdK-4" style="edgeStyle=orthogonalEdgeStyle;rounded=0;orthogonalLoop=1;jettySize=auto;html=1;exitX=0.218;exitY=0.995;exitDx=0;exitDy=0;entryX=0.5;entryY=0;entryDx=0;entryDy=0;exitPerimeter=0;" parent="1" source="0nKidd32OIN0jVX-Ibuc-11" target="3istYZNnOz3HoTTH1EdK-2" edge="1">
          <mxGeometry relative="1" as="geometry">
            <mxPoint x="410" y="510" as="sourcePoint" />
            <mxPoint x="410" y="470" as="targetPoint" />
          </mxGeometry>
        </mxCell>
        <mxCell id="3istYZNnOz3HoTTH1EdK-5" style="edgeStyle=orthogonalEdgeStyle;rounded=0;orthogonalLoop=1;jettySize=auto;html=1;exitX=0.218;exitY=0.995;exitDx=0;exitDy=0;entryX=0.5;entryY=0;entryDx=0;entryDy=0;exitPerimeter=0;startArrow=classic;startFill=1;endArrow=none;endFill=0;" parent="1" edge="1">
          <mxGeometry relative="1" as="geometry">
            <mxPoint x="169.92000000000002" y="460" as="sourcePoint" />
            <mxPoint x="169.92000000000002" y="492" as="targetPoint" />
          </mxGeometry>
        </mxCell>
        <mxCell id="3istYZNnOz3HoTTH1EdK-6" style="edgeStyle=orthogonalEdgeStyle;rounded=0;orthogonalLoop=1;jettySize=auto;html=1;exitX=0.5;exitY=1;exitDx=0;exitDy=0;entryX=0.5;entryY=0;entryDx=0;entryDy=0;" parent="1" source="3istYZNnOz3HoTTH1EdK-2" target="3istYZNnOz3HoTTH1EdK-3" edge="1">
          <mxGeometry relative="1" as="geometry">
            <mxPoint x="74.9" y="528" as="sourcePoint" />
            <mxPoint x="74.9" y="560" as="targetPoint" />
          </mxGeometry>
        </mxCell>
        <mxCell id="3istYZNnOz3HoTTH1EdK-8" value="&lt;font style=&quot;font-size: 10px;&quot;&gt;4&lt;/font&gt;" style="text;html=1;align=center;verticalAlign=middle;resizable=0;points=[];autosize=1;strokeColor=none;fillColor=none;spacing=-3;" parent="1" vertex="1">
          <mxGeometry x="50" y="469" width="20" height="20" as="geometry" />
        </mxCell>
        <mxCell id="3istYZNnOz3HoTTH1EdK-9" value="&lt;font style=&quot;font-size: 10px;&quot;&gt;5&lt;/font&gt;" style="text;html=1;align=center;verticalAlign=middle;resizable=0;points=[];autosize=1;strokeColor=none;fillColor=none;spacing=-3;" parent="1" vertex="1">
          <mxGeometry x="50" y="540" width="20" height="20" as="geometry" />
        </mxCell>
        <mxCell id="3istYZNnOz3HoTTH1EdK-10" value="&lt;span style=&quot;font-size: 10px;&quot;&gt;6&lt;/span&gt;" style="text;html=1;align=center;verticalAlign=middle;resizable=0;points=[];autosize=1;strokeColor=none;fillColor=none;spacing=-3;" parent="1" vertex="1">
          <mxGeometry x="150" y="472" width="20" height="20" as="geometry" />
        </mxCell>
        <mxCell id="bLnRGp_l7p0DU4mlCDPi-12" style="edgeStyle=orthogonalEdgeStyle;rounded=0;orthogonalLoop=1;jettySize=auto;html=1;exitX=0.75;exitY=0;exitDx=0;exitDy=0;entryX=1;entryY=0.5;entryDx=0;entryDy=0;" parent="1" source="bLnRGp_l7p0DU4mlCDPi-4" target="0nKidd32OIN0jVX-Ibuc-16" edge="1">
          <mxGeometry relative="1" as="geometry" />
        </mxCell>
        <mxCell id="bLnRGp_l7p0DU4mlCDPi-4" value="&lt;font style=&quot;font-size: 10px;&quot;&gt;Obstacle&lt;/font&gt;&lt;div&gt;&lt;font style=&quot;font-size: 10px;&quot;&gt;Detection&lt;/font&gt;&lt;/div&gt;" style="rounded=0;whiteSpace=wrap;html=1;" parent="1" vertex="1">
          <mxGeometry x="410" y="492" width="55" height="30" as="geometry" />
        </mxCell>
        <mxCell id="bLnRGp_l7p0DU4mlCDPi-14" style="edgeStyle=orthogonalEdgeStyle;rounded=0;orthogonalLoop=1;jettySize=auto;html=1;exitX=0.25;exitY=0;exitDx=0;exitDy=0;entryX=0;entryY=0.5;entryDx=0;entryDy=0;" parent="1" source="bLnRGp_l7p0DU4mlCDPi-5" target="bLnRGp_l7p0DU4mlCDPi-4" edge="1">
          <mxGeometry relative="1" as="geometry" />
        </mxCell>
        <mxCell id="bLnRGp_l7p0DU4mlCDPi-5" value="&lt;span style=&quot;font-size: 10px;&quot;&gt;Static&lt;/span&gt;&lt;div&gt;&lt;span style=&quot;font-size: 10px;&quot;&gt;Map&lt;/span&gt;&lt;/div&gt;" style="rounded=0;whiteSpace=wrap;html=1;" parent="1" vertex="1">
          <mxGeometry x="375" y="560" width="52" height="30" as="geometry" />
        </mxCell>
        <mxCell id="bLnRGp_l7p0DU4mlCDPi-13" style="edgeStyle=orthogonalEdgeStyle;rounded=0;orthogonalLoop=1;jettySize=auto;html=1;exitX=0.75;exitY=0;exitDx=0;exitDy=0;entryX=1;entryY=0.5;entryDx=0;entryDy=0;" parent="1" source="bLnRGp_l7p0DU4mlCDPi-6" target="bLnRGp_l7p0DU4mlCDPi-4" edge="1">
          <mxGeometry relative="1" as="geometry" />
        </mxCell>
        <mxCell id="bLnRGp_l7p0DU4mlCDPi-6" value="&lt;span style=&quot;font-size: 10px;&quot;&gt;Live LiDAR&lt;/span&gt;&lt;div&gt;&lt;span style=&quot;font-size: 10px;&quot;&gt;Data&lt;/span&gt;&lt;/div&gt;" style="rounded=0;whiteSpace=wrap;html=1;" parent="1" vertex="1">
          <mxGeometry x="440" y="550" width="70" height="30" as="geometry" />
        </mxCell>
        <mxCell id="bLnRGp_l7p0DU4mlCDPi-9" style="edgeStyle=orthogonalEdgeStyle;rounded=0;orthogonalLoop=1;jettySize=auto;html=1;exitX=0.5;exitY=0;exitDx=0;exitDy=0;entryX=0;entryY=0.5;entryDx=0;entryDy=0;" parent="1" source="bLnRGp_l7p0DU4mlCDPi-7" target="0nKidd32OIN0jVX-Ibuc-16" edge="1">
          <mxGeometry relative="1" as="geometry" />
        </mxCell>
        <mxCell id="bLnRGp_l7p0DU4mlCDPi-7" value="&lt;span style=&quot;font-size: 10px;&quot;&gt;Robot Position&lt;/span&gt;&lt;div&gt;&lt;span style=&quot;font-size: 10px;&quot;&gt;Estimate&lt;/span&gt;&lt;/div&gt;" style="rounded=0;whiteSpace=wrap;html=1;" parent="1" vertex="1">
          <mxGeometry x="287.5" y="500" width="75" height="39" as="geometry" />
        </mxCell>
        <mxCell id="bLnRGp_l7p0DU4mlCDPi-15" style="edgeStyle=orthogonalEdgeStyle;rounded=0;orthogonalLoop=1;jettySize=auto;html=1;exitX=0.5;exitY=0;exitDx=0;exitDy=0;entryX=0.5;entryY=1;entryDx=0;entryDy=0;" parent="1" source="bLnRGp_l7p0DU4mlCDPi-8" target="bLnRGp_l7p0DU4mlCDPi-7" edge="1">
          <mxGeometry relative="1" as="geometry" />
        </mxCell>
        <mxCell id="bLnRGp_l7p0DU4mlCDPi-8" value="&lt;font style=&quot;font-size: 10px;&quot;&gt;SLAM&lt;/font&gt;" style="rounded=0;whiteSpace=wrap;html=1;" parent="1" vertex="1">
          <mxGeometry x="307.5" y="565" width="35" height="20" as="geometry" />
        </mxCell>
        <mxCell id="bLnRGp_l7p0DU4mlCDPi-16" value="&lt;font style=&quot;font-size: 10px;&quot;&gt;9&lt;/font&gt;" style="text;html=1;align=center;verticalAlign=middle;resizable=0;points=[];autosize=1;strokeColor=none;fillColor=none;spacing=-3;" parent="1" vertex="1">
          <mxGeometry x="430" y="452" width="20" height="20" as="geometry" />
        </mxCell>
        <mxCell id="bLnRGp_l7p0DU4mlCDPi-17" value="&lt;font style=&quot;font-size: 10px;&quot;&gt;7&lt;/font&gt;" style="text;html=1;align=center;verticalAlign=middle;resizable=0;points=[];autosize=1;strokeColor=none;fillColor=none;spacing=-3;" parent="1" vertex="1">
          <mxGeometry x="304.5" y="452" width="20" height="20" as="geometry" />
        </mxCell>
        <mxCell id="bLnRGp_l7p0DU4mlCDPi-18" value="&lt;font style=&quot;font-size: 10px;&quot;&gt;8&lt;/font&gt;" style="text;html=1;align=center;verticalAlign=middle;resizable=0;points=[];autosize=1;strokeColor=none;fillColor=none;spacing=-3;" parent="1" vertex="1">
          <mxGeometry x="304.5" y="545" width="20" height="20" as="geometry" />
        </mxCell>
        <mxCell id="bLnRGp_l7p0DU4mlCDPi-19" value="&lt;font style=&quot;font-size: 10px;&quot;&gt;10&lt;/font&gt;" style="text;html=1;align=center;verticalAlign=middle;resizable=0;points=[];autosize=1;strokeColor=none;fillColor=none;spacing=-3;" parent="1" vertex="1">
          <mxGeometry x="368" y="530" width="20" height="20" as="geometry" />
        </mxCell>
        <mxCell id="bLnRGp_l7p0DU4mlCDPi-20" value="&lt;font style=&quot;font-size: 10px;&quot;&gt;11&lt;/font&gt;" style="text;html=1;align=center;verticalAlign=middle;resizable=0;points=[];autosize=1;strokeColor=none;fillColor=none;spacing=-3;" parent="1" vertex="1">
          <mxGeometry x="472" y="522" width="20" height="20" as="geometry" />
        </mxCell>
      </root>
    </mxGraphModel>
  </diagram>
</mxfile>
